<svg 
 xmlns="http://www.w3.org/2000/svg"
 xmlns:xlink="http://www.w3.org/1999/xlink"
 width="34px" height="58px">
<path fill-rule="evenodd"  fill="rgb(255, 255, 255)"
 d="M17.000,58.000 C7.611,58.000 0.000,50.389 0.000,41.000 L0.000,16.1000 C0.000,7.611 7.611,-0.000 17.000,-0.000 C26.389,-0.000 33.1000,7.611 33.1000,16.1000 L33.1000,41.000 C33.1000,50.389 26.389,58.000 17.000,58.000 ZM19.1000,11.1000 C19.1000,10.343 18.657,8.1000 17.000,8.1000 C15.343,8.1000 14.000,10.343 14.000,11.1000 L14.000,16.1000 C14.000,18.657 15.343,19.1000 17.000,19.1000 C18.657,19.1000 19.1000,18.657 19.1000,16.1000 L19.1000,11.1000 Z"/>
</svg>