<?xml version="1.0" encoding="utf-8"?>
<!-- Generator: Adobe Illustrator 27.2.0, SVG Export Plug-In . SVG Version: 6.00 Build 0)  -->
<svg version="1.1" xmlns="http://www.w3.org/2000/svg" xmlns:xlink="http://www.w3.org/1999/xlink" x="0px" y="0px"
	 viewBox="0 0 100 100" style="enable-background:new 0 0 100 100;" xml:space="preserve">
<style type="text/css">
	.st0{display:none;}
	.st1{fill:none;stroke:#231F20;stroke-width:7.258;stroke-miterlimit:10;}
	.st2{fill:none;stroke:#231F20;stroke-width:7.6225;stroke-miterlimit:10;}
	.st3{fill:none;stroke:#231F20;stroke-width:7.1926;stroke-miterlimit:10;}
	.st4{fill:none;stroke:#231F20;stroke-width:7.8336;stroke-linecap:round;stroke-miterlimit:10;}
	.st5{fill:none;stroke:#231F20;stroke-width:7.9887;stroke-linecap:round;stroke-miterlimit:10;}
	.st6{fill:none;stroke:#231F20;stroke-width:7.8025;stroke-linecap:round;stroke-miterlimit:10;}
	.st7{fill:none;stroke:#231F20;stroke-width:7.8024;stroke-linecap:round;stroke-miterlimit:10;}
	.st8{fill:none;stroke:#231F20;stroke-width:7.824;stroke-linecap:round;stroke-miterlimit:10;}
	.st9{fill:none;stroke:#231F20;stroke-width:7;stroke-linecap:round;stroke-miterlimit:10;}
	.st10{fill:#231F20;}
	.st11{fill:#FFFFFF;stroke:#231F20;stroke-width:0.9184;stroke-miterlimit:10;}
</style>
<g id="Layer_1" class="st0">
</g>
<g id="Layer_2">
	<path class="st10" d="M34.46,28.65l0,8.92h31.08v-9.32c0-9.16-7.92-16.47-17.3-15.44C40.31,13.67,34.46,20.67,34.46,28.65z
		 M22.03,37.57V28.8c0-14.73,11.17-27.37,25.87-28.45c16.39-1.2,30.07,11.76,30.07,27.89v9.32h3.11c6.87,0,12.43,5.57,12.43,12.43
		v37.29c0,6.87-5.57,12.43-12.43,12.43H18.92c-6.87,0-12.43-5.57-12.43-12.43V50c0-6.87,5.57-12.43,12.43-12.43H22.03z"/>
	<path class="st11" d="M51.76,86.46h-3.64c-0.84,0-1.53-0.68-1.53-1.53V57.77c0-0.99,0.81-1.8,1.8-1.8h3.22c0.99,0,1.8,0.81,1.8,1.8
		v27.05C53.41,85.73,52.67,86.46,51.76,86.46z"/>
</g>
</svg>
